<?xml version='1.0' encoding='utf-8'?>
<svg xmlns="http://www.w3.org/2000/svg" viewBox="0 0 1e3 1e3"> <defs> <linearGradient id="a" x1=".5" x2=".5" y1=".63251" y2="1.0154"> <stop stop-color="#004c91" offset="0"/> <stop stop-color="#00d7ff" offset="1"/> </linearGradient> </defs> <g transform="matrix(22.709 0 0 22.709 -10368 -16814)"> <path d="m499.95 762.41c0 11.797-9.5635 21.361-21.361 21.361-11.797 0-21.361-9.5635-21.361-21.361 0-11.797 9.5635-21.361 21.361-21.361 11.797 0 21.361 9.5635 21.361 21.361z" fill="url(#a)" stroke="#000091"/> <path d="m457.92 761.96c-0.032196 4.0715 13.676-3.2834 19.821-3.2143 6.0477 0.067993 21.518 7.9552 21.518 2.5 0-7.536-6.8514-19.385-20.446-19.464-13.595-0.079407-20.822 11.232-20.893 20.179z" fill="#fff" fill-opacity=".518"/> </g> <g fill="#fff" stroke-width="0"> <rect x="367.74" y="285" width="80" height="429"/> <rect x="552.24" y="285" width="80" height="429"/> </g> </svg>